<svg width="48" height="48" viewBox="0 0 48 48" fill="none" xmlns="http://www.w3.org/2000/svg">
<path d="M24 48C37.2548 48 48 37.2548 48 24C48 10.7452 37.2548 0 24 0C10.7452 0 0 10.7452 0 24C0 37.2548 10.7452 48 24 48Z" fill="white"/>
<path fill-rule="evenodd" clip-rule="evenodd" d="M36.841 24.298C36.8419 23.3993 36.7622 22.5024 36.603 21.618H24.262V26.686H31.314C31.1681 27.4877 30.8611 28.2516 30.4117 28.9314C29.9622 29.6112 29.3796 30.1928 28.699 30.641V33.929H32.934C34.2237 32.687 35.2379 31.1878 35.911 29.5287C36.5841 27.8695 36.9009 26.0874 36.841 24.298Z" fill="#5080E7"/>
<path fill-rule="evenodd" clip-rule="evenodd" d="M24.262 37.104C27.4518 37.1903 30.554 36.0545 32.934 33.929L28.699 30.641C27.6862 31.2923 26.538 31.7034 25.342 31.843C24.146 31.9826 22.9339 31.8469 21.7984 31.4464C20.6628 31.0459 19.6339 30.3911 18.7901 29.5321C17.9463 28.6731 17.3101 27.6325 16.93 26.49H12.552V29.8849C13.6426 32.0557 15.3153 33.8804 17.3832 35.1552C19.4511 36.43 21.8327 37.1048 24.262 37.104Z" fill="#57A35C"/>
<path fill-rule="evenodd" clip-rule="evenodd" d="M16.93 26.49C16.382 24.8756 16.382 23.1254 16.93 21.511V18.111H12.552C11.636 19.9373 11.1589 21.9523 11.1589 23.9955C11.1589 26.0387 11.636 28.0537 12.552 29.88L16.93 26.485V26.49Z" fill="#EEBB41"/>
<path fill-rule="evenodd" clip-rule="evenodd" d="M24.262 16.112C26.1245 16.081 27.9242 16.7851 29.271 18.072L33.029 14.314C30.6576 12.0861 27.5156 10.8629 24.262 10.901C21.8327 10.9002 19.4511 11.5749 17.3832 12.8497C15.3153 14.1246 13.6426 15.9493 12.552 18.12L16.93 21.52C17.4338 19.9661 18.4122 18.6094 19.7274 17.6407C21.0427 16.672 22.6286 16.1402 24.262 16.12V16.112Z" fill="#D34F3E"/>
</svg>
