<svg width="48" height="48" viewBox="0 0 48 48" fill="none" xmlns="http://www.w3.org/2000/svg">
<path d="M24 48C37.2548 48 48 37.2548 48 24C48 10.7452 37.2548 0 24 0C10.7452 0 0 10.7452 0 24C0 37.2548 10.7452 48 24 48Z" fill="#F3DF4B"/>
<path d="M24 11.94C16.145 11.94 9.77698 16.974 9.77698 23.184C9.77698 27.226 12.477 30.769 16.524 32.751C16.224 33.861 15.447 36.774 15.291 37.397C15.098 38.171 15.574 38.161 15.891 37.954C16.136 37.79 19.791 35.3059 21.365 34.2339C22.239 34.3634 23.1214 34.4283 24.005 34.428C31.86 34.428 38.228 29.395 38.228 23.184C38.228 16.973 31.855 11.94 24 11.94Z" fill="#331D1E"/>
<path d="M14.0769 21.112H15.5409C15.5409 21.112 15.5499 25.1329 15.5409 26.0699C15.5409 26.7539 17.0639 26.763 17.0619 26.08L17.0679 21.165C17.0679 21.165 17.5589 21.165 18.5249 21.165C18.7103 21.1581 18.8858 21.0795 19.0145 20.9459C19.1433 20.8123 19.2152 20.634 19.2152 20.4485C19.2152 20.263 19.1433 20.0847 19.0145 19.951C18.8858 19.8174 18.7103 19.7389 18.5249 19.732C17.4989 19.732 14.0719 19.704 14.0719 19.704C13.8863 19.704 13.7082 19.7777 13.577 19.909C13.4457 20.0403 13.3719 20.2183 13.3719 20.404C13.3719 20.5896 13.4457 20.7677 13.577 20.8989C13.7082 21.0302 13.8863 21.104 14.0719 21.104" fill="#F3DF4B"/>
<mask id="mask0_9_706" style="mask-type:luminance" maskUnits="userSpaceOnUse" x="13" y="19" width="7" height="8">
<path d="M14.0769 21.112H15.5409C15.5409 21.112 15.5499 25.1329 15.5409 26.0699C15.5409 26.7539 17.0639 26.763 17.0619 26.08L17.0679 21.165C17.0679 21.165 17.5589 21.165 18.5249 21.165C18.7103 21.1581 18.8858 21.0795 19.0145 20.9459C19.1433 20.8123 19.2152 20.634 19.2152 20.4485C19.2152 20.263 19.1433 20.0847 19.0145 19.951C18.8858 19.8174 18.7103 19.7389 18.5249 19.732C17.4989 19.732 14.0719 19.704 14.0719 19.704C13.8863 19.704 13.7082 19.7777 13.577 19.909C13.4457 20.0403 13.3719 20.2183 13.3719 20.404C13.3719 20.5896 13.4457 20.7677 13.577 20.8989C13.7082 21.0302 13.8863 21.104 14.0719 21.104" fill="white"/>
</mask>
<g mask="url(#mask0_9_706)">
<path d="M19.4379 19.71H13.2159V26.765H19.4379V19.71Z" fill="#F3DF4B"/>
</g>
<path d="M21.084 21.374L21.899 23.927H20.1999L21.084 21.374ZM20.171 20.174C19.811 20.967 18.51 24.714 18.078 25.707C17.765 26.426 19.112 27.007 19.425 26.293L19.718 25.269H22.4C22.4 25.269 22.308 25.311 22.663 26.25C22.952 27.009 24.342 26.483 24.054 25.723C23.643 24.636 22.22 20.723 21.96 20.174C21.8493 20.0254 21.703 19.9072 21.5344 19.8303C21.3659 19.7533 21.1807 19.7202 20.996 19.7339C20.831 19.7191 20.6652 19.7529 20.5191 19.8311C20.3731 19.9092 20.2531 20.0284 20.174 20.174" fill="#F3DF4B"/>
<mask id="mask1_9_706" style="mask-type:luminance" maskUnits="userSpaceOnUse" x="18" y="19" width="7" height="8">
<path d="M21.084 21.374L21.899 23.927H20.1999L21.084 21.374ZM20.171 20.174C19.811 20.967 18.51 24.714 18.078 25.707C17.765 26.426 19.112 27.007 19.425 26.293L19.718 25.269H22.4C22.4 25.269 22.308 25.311 22.663 26.25C22.952 27.009 24.342 26.483 24.054 25.723C23.643 24.636 22.22 20.723 21.96 20.174C21.8493 20.0254 21.703 19.9072 21.5344 19.8303C21.3659 19.7533 21.1807 19.7202 20.996 19.7339C20.831 19.7191 20.6652 19.7529 20.5191 19.8311C20.3731 19.9092 20.2531 20.0284 20.174 20.174" fill="white"/>
</mask>
<g mask="url(#mask1_9_706)">
<path d="M24.3389 19.739H17.7649V27.016H24.3389V19.739Z" fill="#F3DF4B"/>
</g>
<path d="M24.564 20.412C24.564 21.685 24.571 25.789 24.571 25.789C24.571 25.789 24.454 26.605 25.153 26.605C25.852 26.605 27.404 26.597 28.092 26.597C28.78 26.597 28.776 25.133 28.092 25.133C27.408 25.133 26.148 25.126 26.148 25.126C26.148 25.126 26.154 21.326 26.148 20.408C26.1216 20.2165 26.0268 20.0412 25.8811 19.9142C25.7354 19.7872 25.5487 19.7173 25.3555 19.7173C25.1622 19.7173 24.9755 19.7872 24.8299 19.9142C24.6842 20.0412 24.5894 20.2165 24.563 20.408" fill="#F3DF4B"/>
<mask id="mask2_9_706" style="mask-type:luminance" maskUnits="userSpaceOnUse" x="24" y="19" width="5" height="8">
<path d="M24.564 20.412C24.564 21.685 24.571 25.789 24.571 25.789C24.571 25.789 24.454 26.605 25.153 26.605C25.852 26.605 27.404 26.597 28.092 26.597C28.78 26.597 28.776 25.133 28.092 25.133C27.408 25.133 26.148 25.126 26.148 25.126C26.148 25.126 26.154 21.326 26.148 20.408C26.1216 20.2165 26.0268 20.0412 25.8811 19.9142C25.7354 19.7872 25.5487 19.7173 25.3555 19.7173C25.1622 19.7173 24.9755 19.7872 24.8299 19.9142C24.6842 20.0412 24.5894 20.2165 24.563 20.408" fill="white"/>
</mask>
<g mask="url(#mask2_9_706)">
<path d="M28.78 19.741H24.454V26.606H28.78V19.741Z" fill="#F3DF4B"/>
</g>
<path d="M28.9639 20.212C28.9789 20.77 28.9459 25.819 28.9459 26.193C28.9459 26.784 30.4459 26.782 30.4459 26.193V24.207L30.8879 23.853L32.8169 26.486C33.2079 27.001 34.4349 26.071 34.0459 25.556L31.9959 22.856C31.9959 22.856 33.3869 21.351 33.9359 20.806C34.2559 20.489 33.2649 19.491 32.9449 19.806C32.6249 20.121 30.4559 22.295 30.4559 22.295C30.4559 22.295 30.4749 20.925 30.4559 20.168C30.4479 19.881 30.0959 19.741 29.7349 19.741C29.3489 19.741 28.9539 19.901 28.9619 20.209" fill="#F3DF4B"/>
<mask id="mask3_9_706" style="mask-type:luminance" maskUnits="userSpaceOnUse" x="28" y="19" width="7" height="8">
<path d="M28.9639 20.212C28.9789 20.77 28.9459 25.819 28.9459 26.193C28.9459 26.784 30.4459 26.782 30.4459 26.193V24.207L30.8879 23.853L32.8169 26.486C33.2079 27.001 34.4349 26.071 34.0459 25.556L31.9959 22.856C31.9959 22.856 33.3869 21.351 33.9359 20.806C34.2559 20.489 33.2649 19.491 32.9449 19.806C32.6249 20.121 30.4559 22.295 30.4559 22.295C30.4559 22.295 30.4749 20.925 30.4559 20.168C30.4479 19.881 30.0959 19.741 29.7349 19.741C29.3489 19.741 28.9539 19.901 28.9619 20.209" fill="white"/>
</mask>
<g mask="url(#mask3_9_706)">
<path d="M34.4389 19.49H28.9459V26.999H34.4389V19.49Z" fill="#F3DF4B"/>
</g>
</svg>
