<svg width="87" height="44" viewBox="0 0 87 44" fill="none" xmlns="http://www.w3.org/2000/svg">
<path d="M76.97 0H10C4.47715 0 0 4.47715 0 10V34C0 39.5228 4.47715 44 10 44H76.97C82.4929 44 86.97 39.5228 86.97 34V10C86.97 4.47715 82.4929 0 76.97 0Z" fill="#FF7400"/>
<path d="M19.0234 24.1484H18.0977V16.5547H19.0234V24.1484ZM19.3516 26.7148H12.2969V23.375H13.2109V25.9531H19.3516V26.7148ZM13.3984 17.2695C13.9102 17.2695 14.373 17.3809 14.7871 17.6035C15.2051 17.8223 15.5332 18.125 15.7715 18.5117C16.0098 18.8984 16.1289 19.3359 16.1289 19.8242C16.1289 20.3164 16.0098 20.7578 15.7715 21.1484C15.5332 21.5391 15.2051 21.8438 14.7871 22.0625C14.373 22.2812 13.9102 22.3906 13.3984 22.3906C12.8789 22.3906 12.4102 22.2832 11.9922 22.0684C11.5781 21.8496 11.252 21.5449 11.0137 21.1543C10.7754 20.7598 10.6562 20.3164 10.6562 19.8242C10.6562 19.3359 10.7754 18.8984 11.0137 18.5117C11.252 18.125 11.5781 17.8223 11.9922 17.6035C12.4102 17.3809 12.8789 17.2695 13.3984 17.2695ZM13.3984 18.0664C13.0508 18.0664 12.7363 18.1426 12.4551 18.2949C12.1777 18.4473 11.959 18.6562 11.7988 18.9219C11.6387 19.1875 11.5586 19.4883 11.5586 19.8242C11.5586 20.1641 11.6387 20.4668 11.7988 20.7324C11.959 20.998 12.1777 21.2051 12.4551 21.3535C12.7363 21.498 13.0508 21.5703 13.3984 21.5703C13.7422 21.5703 14.0527 21.498 14.3301 21.3535C14.6113 21.2051 14.832 20.998 14.9922 20.7324C15.1562 20.4668 15.2383 20.1641 15.2383 19.8242C15.2383 19.4883 15.1562 19.1875 14.9922 18.9219C14.832 18.6562 14.6113 18.4473 14.3301 18.2949C14.0527 18.1426 13.7422 18.0664 13.3984 18.0664ZM30.2852 22.25H20.793V21.5H30.2852V22.25ZM25.5273 23.1641C26.2695 23.1641 26.9102 23.2383 27.4492 23.3867C27.9883 23.5352 28.4023 23.752 28.6914 24.0371C28.9805 24.3184 29.125 24.6562 29.125 25.0508C29.125 25.4453 28.9805 25.7832 28.6914 26.0645C28.4023 26.3457 27.9883 26.5586 27.4492 26.7031C26.9141 26.8516 26.2734 26.9258 25.5273 26.9258C24.7812 26.9258 24.1387 26.8516 23.5996 26.7031C23.0605 26.5586 22.6465 26.3457 22.3574 26.0645C22.0723 25.7832 21.9297 25.4453 21.9297 25.0508C21.9297 24.6562 22.0723 24.3184 22.3574 24.0371C22.6465 23.752 23.0605 23.5352 23.5996 23.3867C24.1426 23.2383 24.7852 23.1641 25.5273 23.1641ZM25.5273 23.8906C24.9766 23.8906 24.5 23.9375 24.0977 24.0312C23.6992 24.125 23.3945 24.2598 23.1836 24.4355C22.9727 24.6074 22.8672 24.8125 22.8672 25.0508C22.8672 25.2891 22.9707 25.4941 23.1777 25.666C23.3887 25.834 23.6914 25.9629 24.0859 26.0527C24.4805 26.1426 24.9492 26.1875 25.4922 26.1875C26.3398 26.1875 27 26.0898 27.4727 25.8945C27.9492 25.6953 28.1875 25.4141 28.1875 25.0508C28.1875 24.8086 28.082 24.6016 27.8711 24.4297C27.6602 24.2578 27.3535 24.125 26.9512 24.0312C26.5527 23.9375 26.0781 23.8906 25.5273 23.8906ZM29.4297 17.8203H26.1367C26.1445 18.1992 26.3184 18.5527 26.6582 18.8809C26.998 19.2051 27.4414 19.4766 27.9883 19.6953C28.5391 19.9102 29.125 20.0508 29.7461 20.1172L29.418 20.8555C28.8359 20.7852 28.2852 20.6543 27.7656 20.4629C27.2461 20.2715 26.791 20.0273 26.4004 19.7305C26.0137 19.4336 25.7285 19.0957 25.5449 18.7168C25.3613 19.0957 25.0742 19.4336 24.6836 19.7305C24.293 20.0273 23.8359 20.2715 23.3125 20.4629C22.793 20.6543 22.2422 20.7852 21.6602 20.8555L21.332 20.1172C21.9492 20.0508 22.5332 19.9102 23.084 19.6953C23.6348 19.4766 24.0801 19.2051 24.4199 18.8809C24.7637 18.5527 24.9414 18.1992 24.9531 17.8203H21.6602V17.0703H29.4297V17.8203ZM39.8008 24.2539H38.8633V20.2461H36.4141V22.4727H31.6797V17.2344H32.6055V19.0859H35.5V17.2344H36.4141V19.4844H38.8633V16.5547H39.8008V24.2539ZM40.0469 26.7148H33.0508V23.5039H33.9766V25.9531H40.0469V26.7148ZM35.5 21.7109V19.8125H32.6055V21.7109H35.5ZM50.5352 18.8281H42.0039V18.0781H45.8242V16.707H46.7383V18.0781H50.5352V18.8281ZM51.0625 25.7188H41.5352V24.957H45.8242V23.4922C45.207 23.4609 44.6738 23.3633 44.2246 23.1992C43.7793 23.0312 43.4375 22.8066 43.1992 22.5254C42.9648 22.2402 42.8477 21.9062 42.8477 21.5234C42.8477 21.1133 42.9844 20.7598 43.2578 20.4629C43.5352 20.166 43.9297 19.9395 44.4414 19.7832C44.957 19.623 45.5664 19.543 46.2695 19.543C46.9727 19.543 47.582 19.623 48.0977 19.7832C48.6133 19.9395 49.0098 20.166 49.2871 20.4629C49.5645 20.7598 49.7031 21.1133 49.7031 21.5234C49.7031 21.9062 49.584 22.2402 49.3457 22.5254C49.1074 22.8066 48.7656 23.0312 48.3203 23.1992C47.8789 23.3633 47.3516 23.4609 46.7383 23.4922V24.957H51.0625V25.7188ZM46.2695 20.2695C45.7578 20.2695 45.3145 20.3203 44.9395 20.4219C44.5645 20.5234 44.2754 20.668 44.0723 20.8555C43.873 21.043 43.7734 21.2656 43.7734 21.5234C43.7734 21.7812 43.873 22.0039 44.0723 22.1914C44.2754 22.375 44.5645 22.5176 44.9395 22.6191C45.3145 22.7168 45.7578 22.7656 46.2695 22.7656C46.7812 22.7656 47.2246 22.7168 47.5996 22.6191C47.9785 22.5176 48.2695 22.375 48.4727 22.1914C48.6758 22.0039 48.7773 21.7812 48.7773 21.5234C48.7773 21.2656 48.6758 21.043 48.4727 20.8555C48.2695 20.668 47.9785 20.5234 47.5996 20.4219C47.2246 20.3203 46.7812 20.2695 46.2695 20.2695ZM63.543 24.1719H62.6055V20.1758H60.4727V19.4258H62.6055V16.5547H63.543V24.1719ZM63.8242 26.7148H56.8398V23.5039H57.7656V25.9531H63.8242V26.7148ZM58.5273 18.6758C58.5273 19.125 58.6348 19.5625 58.8496 19.9883C59.0645 20.4102 59.3652 20.7871 59.752 21.1191C60.1426 21.4473 60.5898 21.6992 61.0938 21.875L60.6133 22.5898C60.0273 22.3828 59.5137 22.0723 59.0723 21.6582C58.6348 21.2441 58.3047 20.7637 58.082 20.2168C57.8555 20.8184 57.5098 21.3496 57.0449 21.8105C56.5801 22.2676 56.0391 22.6094 55.4219 22.8359L54.9414 22.0977C55.4531 21.918 55.9102 21.6543 56.3125 21.3066C56.7188 20.959 57.0352 20.5586 57.2617 20.1055C57.4883 19.6484 57.6016 19.1758 57.6016 18.6875V18.1484H55.2461V17.3984H60.8477V18.1484H58.5273V18.6758ZM70.4688 21.7109H74.7695V22.4609H65.2773V21.7109H69.5547V20.1758H70.4688V21.7109ZM70.4805 17.1758C70.4805 17.6211 70.6562 18.043 71.0078 18.4414C71.3633 18.8398 71.8262 19.1738 72.3965 19.4434C72.9668 19.7129 73.5625 19.8906 74.1836 19.9766L73.832 20.7148C73.2969 20.6211 72.7793 20.4707 72.2793 20.2637C71.7793 20.0527 71.332 19.791 70.9375 19.4785C70.543 19.166 70.2383 18.8145 70.0234 18.4238C69.8086 18.8145 69.502 19.168 69.1035 19.4844C68.7051 19.7969 68.2559 20.0586 67.7559 20.2695C67.2559 20.4766 66.7383 20.625 66.2031 20.7148L65.8516 19.9766C66.4727 19.8906 67.0664 19.7129 67.6328 19.4434C68.2031 19.1738 68.666 18.8398 69.0215 18.4414C69.377 18.043 69.5547 17.6211 69.5547 17.1758V16.6953H70.4805V17.1758ZM70.0117 23.3281C70.7578 23.3281 71.4004 23.4004 71.9395 23.5449C72.4785 23.6855 72.8906 23.8906 73.1758 24.1602C73.4648 24.4297 73.6094 24.7539 73.6094 25.1328C73.6094 25.5156 73.4648 25.8398 73.1758 26.1055C72.8906 26.375 72.4785 26.5781 71.9395 26.7148C71.4043 26.8555 70.7617 26.9258 70.0117 26.9258C69.2617 26.9258 68.6172 26.8555 68.0781 26.7148C67.5391 26.5781 67.127 26.375 66.8418 26.1055C66.5566 25.8398 66.4141 25.5156 66.4141 25.1328C66.4141 24.7539 66.5566 24.4297 66.8418 24.1602C67.127 23.8906 67.5391 23.6855 68.0781 23.5449C68.6172 23.4004 69.2617 23.3281 70.0117 23.3281ZM70.0117 24.0547C69.1719 24.0547 68.5176 24.1484 68.0488 24.3359C67.5801 24.5234 67.3477 24.7891 67.3516 25.1328C67.3477 25.4727 67.5801 25.7383 68.0488 25.9297C68.5176 26.1172 69.1719 26.2109 70.0117 26.2109C70.8555 26.2109 71.5098 26.1172 71.9746 25.9297C72.4395 25.7422 72.6719 25.4766 72.6719 25.1328C72.6719 24.7891 72.4375 24.5234 71.9688 24.3359C71.5039 24.1484 70.8516 24.0547 70.0117 24.0547Z" fill="white"/>
<path d="M19.0234 24.1484H18.0977V16.5547H19.0234V24.1484ZM19.3516 26.7148H12.2969V23.375H13.2109V25.9531H19.3516V26.7148ZM13.3984 17.2695C13.9102 17.2695 14.373 17.3809 14.7871 17.6035C15.2051 17.8223 15.5332 18.125 15.7715 18.5117C16.0098 18.8984 16.1289 19.3359 16.1289 19.8242C16.1289 20.3164 16.0098 20.7578 15.7715 21.1484C15.5332 21.5391 15.2051 21.8438 14.7871 22.0625C14.373 22.2812 13.9102 22.3906 13.3984 22.3906C12.8789 22.3906 12.4102 22.2832 11.9922 22.0684C11.5781 21.8496 11.252 21.5449 11.0137 21.1543C10.7754 20.7598 10.6562 20.3164 10.6562 19.8242C10.6562 19.3359 10.7754 18.8984 11.0137 18.5117C11.252 18.125 11.5781 17.8223 11.9922 17.6035C12.4102 17.3809 12.8789 17.2695 13.3984 17.2695ZM13.3984 18.0664C13.0508 18.0664 12.7363 18.1426 12.4551 18.2949C12.1777 18.4473 11.959 18.6562 11.7988 18.9219C11.6387 19.1875 11.5586 19.4883 11.5586 19.8242C11.5586 20.1641 11.6387 20.4668 11.7988 20.7324C11.959 20.998 12.1777 21.2051 12.4551 21.3535C12.7363 21.498 13.0508 21.5703 13.3984 21.5703C13.7422 21.5703 14.0527 21.498 14.3301 21.3535C14.6113 21.2051 14.832 20.998 14.9922 20.7324C15.1562 20.4668 15.2383 20.1641 15.2383 19.8242C15.2383 19.4883 15.1562 19.1875 14.9922 18.9219C14.832 18.6562 14.6113 18.4473 14.3301 18.2949C14.0527 18.1426 13.7422 18.0664 13.3984 18.0664ZM30.2852 22.25H20.793V21.5H30.2852V22.25ZM25.5273 23.1641C26.2695 23.1641 26.9102 23.2383 27.4492 23.3867C27.9883 23.5352 28.4023 23.752 28.6914 24.0371C28.9805 24.3184 29.125 24.6562 29.125 25.0508C29.125 25.4453 28.9805 25.7832 28.6914 26.0645C28.4023 26.3457 27.9883 26.5586 27.4492 26.7031C26.9141 26.8516 26.2734 26.9258 25.5273 26.9258C24.7812 26.9258 24.1387 26.8516 23.5996 26.7031C23.0605 26.5586 22.6465 26.3457 22.3574 26.0645C22.0723 25.7832 21.9297 25.4453 21.9297 25.0508C21.9297 24.6562 22.0723 24.3184 22.3574 24.0371C22.6465 23.752 23.0605 23.5352 23.5996 23.3867C24.1426 23.2383 24.7852 23.1641 25.5273 23.1641ZM25.5273 23.8906C24.9766 23.8906 24.5 23.9375 24.0977 24.0312C23.6992 24.125 23.3945 24.2598 23.1836 24.4355C22.9727 24.6074 22.8672 24.8125 22.8672 25.0508C22.8672 25.2891 22.9707 25.4941 23.1777 25.666C23.3887 25.834 23.6914 25.9629 24.0859 26.0527C24.4805 26.1426 24.9492 26.1875 25.4922 26.1875C26.3398 26.1875 27 26.0898 27.4727 25.8945C27.9492 25.6953 28.1875 25.4141 28.1875 25.0508C28.1875 24.8086 28.082 24.6016 27.8711 24.4297C27.6602 24.2578 27.3535 24.125 26.9512 24.0312C26.5527 23.9375 26.0781 23.8906 25.5273 23.8906ZM29.4297 17.8203H26.1367C26.1445 18.1992 26.3184 18.5527 26.6582 18.8809C26.998 19.2051 27.4414 19.4766 27.9883 19.6953C28.5391 19.9102 29.125 20.0508 29.7461 20.1172L29.418 20.8555C28.8359 20.7852 28.2852 20.6543 27.7656 20.4629C27.2461 20.2715 26.791 20.0273 26.4004 19.7305C26.0137 19.4336 25.7285 19.0957 25.5449 18.7168C25.3613 19.0957 25.0742 19.4336 24.6836 19.7305C24.293 20.0273 23.8359 20.2715 23.3125 20.4629C22.793 20.6543 22.2422 20.7852 21.6602 20.8555L21.332 20.1172C21.9492 20.0508 22.5332 19.9102 23.084 19.6953C23.6348 19.4766 24.0801 19.2051 24.4199 18.8809C24.7637 18.5527 24.9414 18.1992 24.9531 17.8203H21.6602V17.0703H29.4297V17.8203ZM39.8008 24.2539H38.8633V20.2461H36.4141V22.4727H31.6797V17.2344H32.6055V19.0859H35.5V17.2344H36.4141V19.4844H38.8633V16.5547H39.8008V24.2539ZM40.0469 26.7148H33.0508V23.5039H33.9766V25.9531H40.0469V26.7148ZM35.5 21.7109V19.8125H32.6055V21.7109H35.5ZM50.5352 18.8281H42.0039V18.0781H45.8242V16.707H46.7383V18.0781H50.5352V18.8281ZM51.0625 25.7188H41.5352V24.957H45.8242V23.4922C45.207 23.4609 44.6738 23.3633 44.2246 23.1992C43.7793 23.0312 43.4375 22.8066 43.1992 22.5254C42.9648 22.2402 42.8477 21.9062 42.8477 21.5234C42.8477 21.1133 42.9844 20.7598 43.2578 20.4629C43.5352 20.166 43.9297 19.9395 44.4414 19.7832C44.957 19.623 45.5664 19.543 46.2695 19.543C46.9727 19.543 47.582 19.623 48.0977 19.7832C48.6133 19.9395 49.0098 20.166 49.2871 20.4629C49.5645 20.7598 49.7031 21.1133 49.7031 21.5234C49.7031 21.9062 49.584 22.2402 49.3457 22.5254C49.1074 22.8066 48.7656 23.0312 48.3203 23.1992C47.8789 23.3633 47.3516 23.4609 46.7383 23.4922V24.957H51.0625V25.7188ZM46.2695 20.2695C45.7578 20.2695 45.3145 20.3203 44.9395 20.4219C44.5645 20.5234 44.2754 20.668 44.0723 20.8555C43.873 21.043 43.7734 21.2656 43.7734 21.5234C43.7734 21.7812 43.873 22.0039 44.0723 22.1914C44.2754 22.375 44.5645 22.5176 44.9395 22.6191C45.3145 22.7168 45.7578 22.7656 46.2695 22.7656C46.7812 22.7656 47.2246 22.7168 47.5996 22.6191C47.9785 22.5176 48.2695 22.375 48.4727 22.1914C48.6758 22.0039 48.7773 21.7812 48.7773 21.5234C48.7773 21.2656 48.6758 21.043 48.4727 20.8555C48.2695 20.668 47.9785 20.5234 47.5996 20.4219C47.2246 20.3203 46.7812 20.2695 46.2695 20.2695ZM63.543 24.1719H62.6055V20.1758H60.4727V19.4258H62.6055V16.5547H63.543V24.1719ZM63.8242 26.7148H56.8398V23.5039H57.7656V25.9531H63.8242V26.7148ZM58.5273 18.6758C58.5273 19.125 58.6348 19.5625 58.8496 19.9883C59.0645 20.4102 59.3652 20.7871 59.752 21.1191C60.1426 21.4473 60.5898 21.6992 61.0938 21.875L60.6133 22.5898C60.0273 22.3828 59.5137 22.0723 59.0723 21.6582C58.6348 21.2441 58.3047 20.7637 58.082 20.2168C57.8555 20.8184 57.5098 21.3496 57.0449 21.8105C56.5801 22.2676 56.0391 22.6094 55.4219 22.8359L54.9414 22.0977C55.4531 21.918 55.9102 21.6543 56.3125 21.3066C56.7188 20.959 57.0352 20.5586 57.2617 20.1055C57.4883 19.6484 57.6016 19.1758 57.6016 18.6875V18.1484H55.2461V17.3984H60.8477V18.1484H58.5273V18.6758ZM70.4688 21.7109H74.7695V22.4609H65.2773V21.7109H69.5547V20.1758H70.4688V21.7109ZM70.4805 17.1758C70.4805 17.6211 70.6562 18.043 71.0078 18.4414C71.3633 18.8398 71.8262 19.1738 72.3965 19.4434C72.9668 19.7129 73.5625 19.8906 74.1836 19.9766L73.832 20.7148C73.2969 20.6211 72.7793 20.4707 72.2793 20.2637C71.7793 20.0527 71.332 19.791 70.9375 19.4785C70.543 19.166 70.2383 18.8145 70.0234 18.4238C69.8086 18.8145 69.502 19.168 69.1035 19.4844C68.7051 19.7969 68.2559 20.0586 67.7559 20.2695C67.2559 20.4766 66.7383 20.625 66.2031 20.7148L65.8516 19.9766C66.4727 19.8906 67.0664 19.7129 67.6328 19.4434C68.2031 19.1738 68.666 18.8398 69.0215 18.4414C69.377 18.043 69.5547 17.6211 69.5547 17.1758V16.6953H70.4805V17.1758ZM70.0117 23.3281C70.7578 23.3281 71.4004 23.4004 71.9395 23.5449C72.4785 23.6855 72.8906 23.8906 73.1758 24.1602C73.4648 24.4297 73.6094 24.7539 73.6094 25.1328C73.6094 25.5156 73.4648 25.8398 73.1758 26.1055C72.8906 26.375 72.4785 26.5781 71.9395 26.7148C71.4043 26.8555 70.7617 26.9258 70.0117 26.9258C69.2617 26.9258 68.6172 26.8555 68.0781 26.7148C67.5391 26.5781 67.127 26.375 66.8418 26.1055C66.5566 25.8398 66.4141 25.5156 66.4141 25.1328C66.4141 24.7539 66.5566 24.4297 66.8418 24.1602C67.127 23.8906 67.5391 23.6855 68.0781 23.5449C68.6172 23.4004 69.2617 23.3281 70.0117 23.3281ZM70.0117 24.0547C69.1719 24.0547 68.5176 24.1484 68.0488 24.3359C67.5801 24.5234 67.3477 24.7891 67.3516 25.1328C67.3477 25.4727 67.5801 25.7383 68.0488 25.9297C68.5176 26.1172 69.1719 26.2109 70.0117 26.2109C70.8555 26.2109 71.5098 26.1172 71.9746 25.9297C72.4395 25.7422 72.6719 25.4766 72.6719 25.1328C72.6719 24.7891 72.4375 24.5234 71.9688 24.3359C71.5039 24.1484 70.8516 24.0547 70.0117 24.0547Z" fill="white"/>
</svg>
