<svg width="75" height="44" viewBox="0 0 75 44" fill="none" xmlns="http://www.w3.org/2000/svg">
<path d="M64.21 0H10C4.47717 0 0 4.47715 0 10V34C0 39.5228 4.47717 44 10 44H64.21C69.7329 44 74.21 39.5228 74.21 34V10C74.21 4.47715 69.7329 0 64.21 0Z" fill="#FF7400"/>
<path d="M24.78 21.79H20.49V22.9C22.45 22.99 23.61 23.63 23.62 24.72C23.62 25.89 22.27 26.55 20.02 26.55C17.77 26.55 16.42 25.89 16.42 24.72C16.42 23.63 17.59 22.99 19.56 22.9V21.79H15.28V21.04H24.77V21.79H24.78ZM23.92 17.4H20.63C20.69 18.56 22.42 19.47 24.24 19.66L23.91 20.4C22.2 20.18 20.6 19.42 20.04 18.26C19.47 19.43 17.86 20.19 16.15 20.4L15.82 19.66C17.63 19.47 19.36 18.56 19.44 17.4H16.15V16.65H23.92V17.4ZM17.36 24.72C17.36 25.43 18.36 25.83 20.02 25.83C21.68 25.83 22.68 25.43 22.68 24.72C22.68 24.01 21.67 23.62 20.02 23.62C18.37 23.62 17.35 24.02 17.36 24.72Z" fill="white"/>
<path d="M35.15 22.31H25.66V21.54H29.95V20.3H26.93V16.41H27.83V17.61H32.99V16.41H33.92V20.3H30.87V21.54H35.16V22.31H35.15ZM33.96 26.57H33.05V24.09H26.71V23.34H33.96V26.57ZM32.98 19.54V18.32H27.82V19.54H32.98Z" fill="white"/>
<path d="M41.8 22.05V21.28C40.58 21.17 39.8 20.62 39.81 19.77C39.81 18.81 40.77 18.22 42.25 18.22C43.73 18.22 44.69 18.81 44.7 19.77C44.7 20.61 43.93 21.17 42.72 21.28V22.02C43.69 21.98 44.68 21.9 45.59 21.76L45.66 22.42C43.4 22.83 40.93 22.84 39.09 22.84L38.98 22.08C39.82 22.08 40.79 22.08 41.8 22.06V22.05ZM45.27 17.82H39.22V17.12H41.8V16.08H42.71V17.12H45.26V17.82H45.27ZM47.15 26.57H46.24V24.41H40.28V23.66H47.16V26.57H47.15ZM40.69 19.76C40.69 20.3 41.3 20.66 42.25 20.66C43.2 20.66 43.81 20.3 43.82 19.76C43.82 19.2 43.2 18.86 42.25 18.86C41.29 18.86 40.69 19.21 40.69 19.76ZM47.15 19.32H48.71V20.09H47.15V23.14H46.24V16.18H47.15V19.32Z" fill="white"/>
<path d="M55.1 19.45C55.1 20.96 53.92 22.02 52.37 22.02C50.8 22.02 49.63 20.96 49.63 19.45C49.63 17.94 50.8 16.9 52.37 16.9C53.92 16.9 55.1 17.97 55.1 19.45ZM50.53 19.45C50.53 20.48 51.32 21.2 52.37 21.2C53.41 21.2 54.2 20.49 54.21 19.45C54.21 18.43 53.41 17.7 52.37 17.69C51.32 17.69 50.53 18.43 50.53 19.45ZM58.33 26.34H51.28V23H52.19V25.58H58.33V26.34ZM58 23.77H57.07V16.18H58V23.77Z" fill="white"/>
</svg>
