<svg width="61" height="17" viewBox="0 0 61 17" fill="none" xmlns="http://www.w3.org/2000/svg">
<g id="Group">
<path id="Vector" d="M4.28 12.3V11.07C2.58 10.71 1.48001 9.61002 1.49001 8.15002C1.49001 6.35002 3.17001 5.11002 5.57001 5.11002C7.97001 5.11002 9.66999 6.35002 9.67999 8.15002C9.67999 9.61002 8.56001 10.71 6.85001 11.07V12.21C8.12001 12.14 9.41 12.03 10.61 11.88L10.79 13.73C7.26999 14.4 3.48999 14.42 0.679993 14.42L0.380005 12.35C1.52 12.35 2.87 12.35 4.28 12.31V12.3ZM10.45 4.57001H0.679993V2.57001H4.28V0.940018H6.85001V2.57001H10.45V4.57001ZM3.92999 8.15002C3.92999 8.90002 4.61 9.27001 5.56 9.27001C6.54 9.27001 7.20001 8.89002 7.21001 8.15002C7.21001 7.41002 6.53 7.03001 5.56 7.03001C4.59 7.03001 3.92999 7.42002 3.92999 8.15002ZM13.95 16.98H11.4V0.860016H13.95V16.98Z" fill="white"/>
<path id="Vector_2" d="M30.02 16.71H17.77V11.88H19.98V9.82C18.6 9.88 17.28 9.9 16.11 9.91L15.79 7.87C18.69 7.87 22.71 7.83 26.11 7.4L26.27 9.23C25.06 9.43 23.8 9.58 22.56 9.67V12.68H20.33V14.67H30.02V16.73V16.71ZM25.09 4.27C25.09 6 23.38 7.16 21.01 7.15C18.62 7.15 16.93 6 16.93 4.27C16.93 2.54 18.63 1.36 21.01 1.37C23.38 1.37 25.08 2.55 25.09 4.27ZM19.38 4.27C19.38 4.96 20.06 5.3 21.01 5.29C21.99 5.29 22.64 4.96 22.64 4.27C22.64 3.57 21.98 3.23 21.01 3.23C20.04 3.23 19.38 3.56 19.38 4.27ZM29.65 13.04H27.08V11.9H24.09V10.16H27.08V0.839996H29.65V13.04Z" fill="white"/>
<path id="Vector_3" d="M32.62 14.25L31.18 12.32C34.8 10.45 36.8 8.08001 37.24 4.53001H32.11V2.46001H39.86C39.86 7.39001 38.07 11.54 32.62 14.25ZM44.22 6.87001H46.4V8.98001H44.22V16.94H41.65V0.820007H44.22V6.87001Z" fill="white"/>
<path id="Vector_4" d="M56.12 5.31001C56.12 7.57001 54.19 9.16002 51.66 9.16002C49.13 9.16002 47.17 7.57001 47.16 5.31001C47.16 3.09001 49.09 1.48002 51.66 1.48002C54.23 1.48002 56.13 3.09001 56.12 5.31001ZM52.16 11.56H57.98V10.19H60.55V16.82H49.63V10.19H52.16V11.56ZM49.69 5.31001C49.69 6.44001 50.51 7.03001 51.66 7.03001C52.81 7.03001 53.61 6.44001 53.61 5.31001C53.61 4.18001 52.78 3.60001 51.66 3.59001C50.52 3.59001 49.68 4.21001 49.69 5.31001ZM57.98 14.76V13.49H52.16V14.76H57.98ZM60.55 9.51002H57.97V0.860016H60.55V9.51002Z" fill="white"/>
</g>
</svg>
