<svg width="48" height="51" viewBox="0 0 48 51" fill="none" xmlns="http://www.w3.org/2000/svg">
<g id="Clip path group">
<mask id="mask0_2006_12" style="mask-type:luminance" maskUnits="userSpaceOnUse" x="0" y="0" width="48" height="51">
<g id="clippath">
<path id="Vector" d="M23.57 27.06L20.75 35.46L12.62 32.82V46.83C12.62 46.98 12.52 47.12 12.37 47.16L0.610001 50.79C0.380001 50.86 0.160004 50.69 0.160004 50.46V2.24002L1.22 0.580017H13.55L12.62 2.24002H30.11C30.71 2.24002 31.3 2.27002 31.88 2.34002L28.59 12.14L27.8 10.8C27.46 10.22 26.79 9.93001 26.13 10.07L17.38 12C16.72 12.14 16.24 12.7 16.17 13.36L15.3 22.28C15.24 22.95 15.61 23.58 16.22 23.85L23.57 27.05V27.06ZM34.59 3.44001L30.78 14.78L33.5 19.4C33.84 19.98 33.77 20.71 33.32 21.21L26.97 28.37C26.77 28.6 26.44 28.67 26.15 28.55L23.54 36.33H31.26C40.41 36.33 47.82 28.91 47.82 19.77V19.68C47.82 11.67 42.13 4.99002 34.58 3.45002L34.59 3.44001Z" fill="white"/>
</g>
</mask>
<g mask="url(#mask0_2006_12)">
<g id="Group">
<path id="Vector_2" d="M54.89 -8.51996H-6.60001V52.97H54.89V-8.51996Z" fill="#FF7400"/>
</g>
</g>
</g>
</svg>
