<svg width="302" height="46" viewBox="0 0 302 46" fill="none" xmlns="http://www.w3.org/2000/svg">
<path opacity="0.5" d="M288.826 1H13.174C6.45049 1 1 6.45049 1 13.174V32.826C1 39.5495 6.45049 45 13.174 45H288.826C295.549 45 301 39.5495 301 32.826V13.174C301 6.45049 295.549 1 288.826 1Z" stroke="white" stroke-miterlimit="10"/>
<path d="M128.129 19.3208V20.9771H126.114V28.1489H124.098V13.9302H126.114V19.3208H128.129ZM117.348 15.2896V22.9771C119.192 22.9536 121.121 22.7974 123.145 22.3989L123.348 24.0552C120.973 24.5474 118.637 24.6724 116.551 24.6646H115.332V15.2896H117.348ZM141.692 20.4146V22.0239H136.207V23.0552C138.684 23.2583 140.145 24.1489 140.145 25.6021C140.145 27.2349 138.27 28.1646 135.176 28.1646C132.075 28.1646 130.192 27.2349 130.192 25.6021C130.192 24.1333 131.684 23.2427 134.192 23.0552V22.0239H128.707V20.4146H141.692ZM135.176 24.5552C133.239 24.5552 132.231 24.8833 132.239 25.6021C132.231 26.2974 133.231 26.6333 135.176 26.6333C137.114 26.6333 138.106 26.2974 138.098 25.6021C138.106 24.8833 137.098 24.5552 135.176 24.5552ZM140.52 14.5396V16.1333H136.692C137.051 17.1021 138.473 18.0396 141.129 18.2583L140.426 19.8521C137.731 19.5942 135.95 18.5864 135.207 17.2114C134.45 18.5864 132.661 19.5942 129.973 19.8521L129.27 18.2583C131.911 18.0396 133.34 17.1021 133.723 16.1333H129.895V14.5396H140.52ZM154.864 13.9458V28.1489H152.942V13.9458H154.864ZM151.911 14.1646V27.5239H150.02V20.8208H148.864C148.7 23.6177 147.52 25.2739 145.754 25.2739C143.879 25.2739 142.661 23.3286 142.661 20.1021C142.661 16.9067 143.879 14.938 145.754 14.9302C147.473 14.938 148.637 16.5317 148.848 19.1802H150.02V14.1646H151.911ZM145.754 16.8521C144.965 16.8521 144.496 17.9224 144.504 20.1021C144.496 22.2817 144.965 23.3599 145.754 23.3677C146.582 23.3599 147.043 22.2817 147.051 20.1021C147.043 17.9224 146.582 16.8521 145.754 16.8521ZM171.489 13.9458V19.4927H173.567V21.1802H171.489V28.1646H169.473V13.9458H171.489ZM168.536 16.0396V17.6646H160.176V16.0396H163.364V14.1802H165.395V16.0396H168.536ZM164.379 18.4771C166.473 18.4692 168.012 19.8755 168.02 21.8521C168.012 23.8364 166.473 25.2427 164.379 25.2427C162.301 25.2427 160.754 23.8364 160.754 21.8521C160.754 19.8755 162.301 18.4692 164.379 18.4771ZM164.379 20.1177C163.395 20.1177 162.684 20.7661 162.692 21.8521C162.684 22.9536 163.395 23.6021 164.379 23.6021C165.371 23.6021 166.082 22.9536 166.082 21.8521C166.082 20.7661 165.371 20.1177 164.379 20.1177ZM186.02 13.9458V28.1489H184.004V13.9458H186.02ZM181.754 15.4146C181.762 19.7505 180.262 23.3208 175.176 25.7583L174.114 24.1489C177.786 22.4067 179.387 20.1567 179.707 17.0083H174.879V15.4146H181.754Z" fill="white"/>
</svg>
