<svg width="15" height="18" viewBox="0 0 15 18" fill="none" xmlns="http://www.w3.org/2000/svg">
<path d="M0.879974 15.15C0.629974 15.15 0.42 15.07 0.25 14.9C0.08 14.73 0 14.52 0 14.27C0 14.02 0.08 13.81 0.25 13.64C0.42 13.47 0.629974 13.39 0.879974 13.39H1.75998V7.24002C1.75998 6.02002 2.12999 4.94002 2.85999 4.00002C3.58999 3.06002 4.54 2.44002 5.72 2.14002V1.52002C5.72 1.15002 5.84998 0.840019 6.09998 0.590019C6.34998 0.340019 6.67 0.210022 7.03 0.210022C7.39 0.210022 7.70999 0.340019 7.95999 0.590019C8.21999 0.850019 8.34 1.16002 8.34 1.52002V2.14002C9.51 2.43002 10.46 3.05002 11.2 4.00002C11.94 4.95002 12.3 6.03002 12.3 7.24002V13.39H13.18C13.43 13.39 13.64 13.47 13.81 13.64C13.98 13.81 14.06 14.02 14.06 14.27C14.06 14.52 13.98 14.73 13.81 14.9C13.64 15.07 13.43 15.15 13.18 15.15H0.879974ZM7.03 17.79C6.55 17.79 6.12998 17.62 5.78998 17.27C5.44998 16.92 5.26999 16.51 5.26999 16.03H8.78998C8.78998 16.51 8.61999 16.93 8.26999 17.27C7.91999 17.61 7.51 17.79 7.03 17.79ZM3.50998 13.4H10.54V7.25002C10.54 6.28002 10.2 5.46002 9.50998 4.77002C8.81998 4.08002 7.99 3.74002 7.03 3.74002C6.07 3.74002 5.23999 4.08002 4.54999 4.77002C3.85999 5.46002 3.51999 6.29002 3.51999 7.25002V13.4H3.50998Z" fill="white"/>
<path d="M12.79 2.67002C13.4693 2.67002 14.0201 2.11933 14.0201 1.44002C14.0201 0.760711 13.4693 0.210022 12.79 0.210022C12.1107 0.210022 11.5601 0.760711 11.5601 1.44002C11.5601 2.11933 12.1107 2.67002 12.79 2.67002Z" fill="#FF421D"/>
</svg>
