<svg width="90" height="44" viewBox="0 0 90 44" fill="none" xmlns="http://www.w3.org/2000/svg">
<path d="M77.864 0H12.136C5.43347 0 0 5.43347 0 12.136V31.864C0 38.5665 5.43347 44 12.136 44H77.864C84.5665 44 90 38.5665 90 31.864V12.136C90 5.43347 84.5665 0 77.864 0Z" fill="#21213D"/>
<path d="M38.3633 16.543V26.9492H37.4844V21.5234H36.0664V26.4219H35.1875V16.7539H36.0664V20.7383H37.4844V16.543H38.3633ZM32.5039 19.3672C32.498 21.2539 33.2773 22.959 34.7656 23.7148L34.2148 24.4297C33.1719 23.8613 32.4512 22.8477 32.082 21.5703C31.7188 23.0176 30.9805 24.1484 29.8906 24.793L29.3164 24.0781C30.8164 23.2637 31.6133 21.4941 31.6133 19.3672V18.5352H29.5508V17.7734H34.4375V18.5352H32.5039V19.3672ZM48.4297 16.5547V24.1719H47.4922V20.1758H45.3594V19.4258H47.4922V16.5547H48.4297ZM48.7109 25.9531V26.7148H41.7266V23.5039H42.6523V25.9531H48.7109ZM43.4141 18.6758C43.4082 20.0352 44.457 21.3418 45.9805 21.875L45.5 22.5898C44.3223 22.1738 43.4141 21.3008 42.9688 20.2109C42.5176 21.418 41.5449 22.3789 40.3086 22.8359L39.8281 22.0977C41.375 21.5586 42.4883 20.1758 42.4883 18.6875V18.1484H40.1328V17.3984H45.7344V18.1484H43.4141V18.6758ZM55.3555 20.1758V21.7109H59.6562V22.4609H50.1641V21.7109H54.4414V20.1758H55.3555ZM55.3672 17.1758C55.3672 18.5645 57.2305 19.7246 59.0703 19.9766L58.7188 20.7148C57.1484 20.4453 55.5723 19.6309 54.9102 18.418C54.2422 19.6309 52.6602 20.4512 51.0898 20.7148L50.7383 19.9766C52.5723 19.7246 54.4355 18.5703 54.4414 17.1758V16.6953H55.3672V17.1758ZM54.8984 23.3281C57.1426 23.334 58.4902 23.9844 58.4961 25.1328C58.4902 26.2871 57.1484 26.9258 54.8984 26.9258C52.6426 26.9258 51.3008 26.2871 51.3008 25.1328C51.3008 23.9844 52.6484 23.334 54.8984 23.3281ZM54.8984 24.0547C53.2285 24.0547 52.2324 24.4414 52.2383 25.1328C52.2324 25.8184 53.2227 26.2109 54.8984 26.2109C56.5801 26.2109 57.5586 25.8184 57.5586 25.1328C57.5586 24.4414 56.5684 24.0547 54.8984 24.0547Z" fill="white"/>
</svg>
