<svg width="278" height="278" viewBox="0 0 278 278" fill="none" xmlns="http://www.w3.org/2000/svg">
<rect width="278" height="278" fill="#616193"/>
<mask id="mask0_98_8402" style="mask-type:alpha" maskUnits="userSpaceOnUse" x="36" y="36" width="206" height="206">
<rect x="36" y="36" width="206" height="206" fill="#D9D9D9"/>
</mask>
<g mask="url(#mask0_98_8402)">
<path d="M44.5833 190.5C42.1514 190.5 40.1128 189.677 38.4677 188.032C36.8226 186.387 36 184.349 36 181.917V176.981C36 170.83 39.1472 165.823 45.4417 161.96C51.7361 158.098 60.0333 156.167 70.3333 156.167C72.1931 156.167 73.9812 156.202 75.6979 156.274C77.4146 156.345 79.0597 156.524 80.6333 156.81C78.6306 159.815 77.1285 162.962 76.1271 166.252C75.1257 169.542 74.625 172.976 74.625 176.552V190.5H44.5833ZM96.0833 190.5C93.6514 190.5 91.6128 189.677 89.9677 188.032C88.3226 186.387 87.5 184.349 87.5 181.917V176.552C87.5 171.974 88.7517 167.79 91.2552 163.999C93.7587 160.208 97.2993 156.882 101.877 154.021C106.455 151.16 111.927 149.014 118.293 147.583C124.659 146.153 131.561 145.437 139 145.437C146.582 145.437 153.556 146.153 159.922 147.583C166.288 149.014 171.76 151.16 176.337 154.021C180.915 156.882 184.42 160.208 186.852 163.999C189.284 167.79 190.5 171.974 190.5 176.552V181.917C190.5 184.349 189.677 186.387 188.032 188.032C186.387 189.677 184.349 190.5 181.917 190.5H96.0833ZM203.375 190.5V176.552C203.375 172.833 202.91 169.328 201.98 166.037C201.05 162.747 199.656 159.672 197.796 156.81C199.369 156.524 200.979 156.345 202.624 156.274C204.269 156.202 205.95 156.167 207.667 156.167C217.967 156.167 226.264 158.062 232.558 161.853C238.853 165.644 242 170.687 242 176.981V181.917C242 184.349 241.177 186.387 239.532 188.032C237.887 189.677 235.849 190.5 233.417 190.5H203.375ZM105.74 173.333H172.475C171.044 170.472 167.075 167.969 160.566 165.823C154.057 163.677 146.868 162.604 139 162.604C131.132 162.604 123.943 163.677 117.434 165.823C110.925 167.969 107.027 170.472 105.74 173.333ZM70.3333 147.583C65.6125 147.583 61.5712 145.902 58.2094 142.541C54.8476 139.179 53.1667 135.137 53.1667 130.417C53.1667 125.553 54.8476 121.476 58.2094 118.185C61.5712 114.895 65.6125 113.25 70.3333 113.25C75.1972 113.25 79.2743 114.895 82.5646 118.185C85.8549 121.476 87.5 125.553 87.5 130.417C87.5 135.137 85.8549 139.179 82.5646 142.541C79.2743 145.902 75.1972 147.583 70.3333 147.583ZM207.667 147.583C202.946 147.583 198.905 145.902 195.543 142.541C192.181 139.179 190.5 135.137 190.5 130.417C190.5 125.553 192.181 121.476 195.543 118.185C198.905 114.895 202.946 113.25 207.667 113.25C212.531 113.25 216.608 114.895 219.898 118.185C223.188 121.476 224.833 125.553 224.833 130.417C224.833 135.137 223.188 139.179 219.898 142.541C216.608 145.902 212.531 147.583 207.667 147.583ZM139 139C131.847 139 125.767 136.497 120.76 131.49C115.753 126.483 113.25 120.403 113.25 113.25C113.25 105.954 115.753 99.8385 120.76 94.9031C125.767 89.9677 131.847 87.5 139 87.5C146.296 87.5 152.411 89.9677 157.347 94.9031C162.282 99.8385 164.75 105.954 164.75 113.25C164.75 120.403 162.282 126.483 157.347 131.49C152.411 136.497 146.296 139 139 139ZM139 121.833C141.432 121.833 143.47 121.011 145.116 119.366C146.761 117.72 147.583 115.682 147.583 113.25C147.583 110.818 146.761 108.78 145.116 107.134C143.47 105.489 141.432 104.667 139 104.667C136.568 104.667 134.53 105.489 132.884 107.134C131.239 108.78 130.417 110.818 130.417 113.25C130.417 115.682 131.239 117.72 132.884 119.366C134.53 121.011 136.568 121.833 139 121.833Z" fill="white"/>
</g>
</svg>
