<svg width="300" height="44" viewBox="0 0 300 44" fill="none" xmlns="http://www.w3.org/2000/svg">
<path d="M287.826 0H12.174C5.45049 0 0 5.45049 0 12.174V31.826C0 38.5495 5.45049 44 12.174 44H287.826C294.549 44 300 38.5495 300 31.826V12.174C300 5.45049 294.549 0 287.826 0Z" fill="#21213D"/>
<path d="M83.4062 25.2188V26.8594H70.4219V25.2188H75.8906V23.0781H71.9219V18.2812H79.9375V16.7344H71.8906V15.1406H81.9375V19.8594H73.9219V21.4688H82.2656V23.0781H77.9062V25.2188H83.4062ZM95.625 15.5156V17.2031C95.625 19.1953 95.625 21.1406 95.1094 24.0625L93.0781 23.8906C93.6172 21.1562 93.6172 19.125 93.6094 17.2031V17.1406H85.5781V15.5156H95.625ZM97.2344 24.9375V26.5781H84.25V24.9375H97.2344ZM109.984 14.2344V24.4531H107.953V14.2344H109.984ZM110.359 26.5625V28.1875H100.453V23.4219H102.469V26.5625H110.359ZM102.188 15.125C104.375 15.125 106.078 16.6328 106.078 18.7344C106.078 20.8125 104.375 22.3359 102.188 22.3438C99.9766 22.3359 98.2812 20.8125 98.2812 18.7344C98.2812 16.6328 99.9766 15.125 102.188 15.125ZM102.188 16.875C101.094 16.8672 100.258 17.5547 100.266 18.7344C100.258 19.8828 101.094 20.5703 102.188 20.5781C103.273 20.5703 104.102 19.8828 104.094 18.7344C104.102 17.5547 103.273 16.8672 102.188 16.875ZM127.172 14.2188V20H129V21.6562H127.172V28.4375H125.141V14.2188H127.172ZM115.625 24.4219C116.648 24.4219 117.852 24.4219 119.109 24.3906V23.1875C117.609 22.8906 116.625 21.9219 116.625 20.6094C116.625 19.0156 118.07 17.9375 120.125 17.9375C122.18 17.9375 123.625 19.0156 123.625 20.6094C123.625 21.9219 122.633 22.8906 121.125 23.1875V24.3125C122.242 24.25 123.359 24.1562 124.406 24.0156L124.562 25.4844C121.539 26.0625 118.273 26.0625 115.859 26.0625L115.625 24.4219ZM124.328 15.7812V17.375H115.891V15.7812H119.109V14.2812H121.125V15.7812H124.328ZM120.125 19.4531C119.164 19.4531 118.539 19.875 118.547 20.6094C118.539 21.3438 119.164 21.75 120.125 21.75C121.078 21.75 121.711 21.3438 121.719 20.6094C121.711 19.875 121.078 19.4531 120.125 19.4531ZM136.953 15.3594V16.4531H139.562V14.2344H141.609V24.5781H139.562V21.125H136.953V22.3125H130.188V15.3594H136.953ZM132.172 16.9531V20.7188H134.984V16.9531H132.172ZM141.906 26.5625V28.1875H132.109V23.6094H134.141V26.5625H141.906ZM136.953 19.5H139.562V18.0625H136.953V19.5ZM149.906 14.9219C152.93 14.9297 155.273 16.5625 155.266 19.0312C155.273 21.5078 152.938 23.1406 149.906 23.1406C146.898 23.1406 144.555 21.5078 144.562 19.0312C144.555 16.5625 146.906 14.9297 149.906 14.9219ZM149.906 16.5781C147.953 16.5703 146.539 17.5 146.547 19.0312C146.539 20.5625 147.945 21.4844 149.906 21.4844C151.891 21.4844 153.297 20.5625 153.297 19.0312C153.297 17.5 151.891 16.5703 149.906 16.5781ZM156.422 25.0625V26.7188H143.438V25.0625H156.422ZM170.25 25.2188V26.8594H157.266V25.2188H162.734V23.0781H158.766V18.2812H166.781V16.7344H158.734V15.1406H168.781V19.8594H160.766V21.4688H169.109V23.0781H164.75V25.2188H170.25ZM186.422 17.4844V19.0781H182.453V19.9844H187.938V21.5781H174.953V19.9844H180.438V19.0781H176.578V14.6875H186.297V16.2969H178.578V17.4844H186.422ZM186.359 22.3281V25.9844H178.469V26.8125H186.734V28.3281H176.469V24.5781H184.359V23.8281H176.438V22.3281H186.359ZM192.625 15.2031C194.805 15.2031 196.391 17.1719 196.391 20.2656C196.391 23.3828 194.805 25.3594 192.625 25.3594C190.453 25.3594 188.867 23.3828 188.859 20.2656C188.867 17.1719 190.453 15.2031 192.625 15.2031ZM192.625 17.0312C191.539 17.0391 190.812 18.1719 190.812 20.2656C190.812 22.3906 191.539 23.5312 192.625 23.5312C193.719 23.5312 194.453 22.3906 194.453 20.2656C194.453 18.1719 193.719 17.0391 192.625 17.0312ZM200.016 14.2188V19.5938H202.109V21.25H200.016V28.4375H198V14.2188H200.016ZM213.844 14.2031V19.6406H215.859V21.3125H213.844V28.4219H211.828V14.2031H213.844ZM210.031 15.6719C210.031 19.9297 208.383 23.5859 203.609 25.9688L202.484 24.4375C205.781 22.75 207.602 20.5078 207.984 17.2969H203.266V15.6719H210.031ZM228.391 14.2188V28.4219H226.375V14.2188H228.391ZM224.125 15.6875C224.133 20.0234 222.633 23.5938 217.547 26.0312L216.484 24.4219C220.156 22.6797 221.758 20.4297 222.078 17.2812H217.25V15.6875H224.125Z" fill="white"/>
</svg>
