<svg width="300" height="44" viewBox="0 0 300 44" fill="none" xmlns="http://www.w3.org/2000/svg">
<path d="M287.826 0H12.174C5.45049 0 0 5.45049 0 12.174V31.826C0 38.5495 5.45049 44 12.174 44H287.826C294.549 44 300 38.5495 300 31.826V12.174C300 5.45049 294.549 0 287.826 0Z" fill="#21213D"/>
<path d="M108.312 14.2031V28.4688H106.281V14.2031H108.312ZM99.1406 15.3281V18.7969H102.172V15.3281H104.172V25.1406H97.125V15.3281H99.1406ZM99.1406 23.5156H102.172V20.3594H99.1406V23.5156ZM117.906 14.9219V20.9375H110.969V14.9219H117.906ZM112.938 16.5V19.3594H115.938V16.5H112.938ZM122.156 14.2188V21.3906H120.125V14.2188H122.156ZM122.156 22.0156V25.8594H114.609V26.7656H122.516V28.3438H112.625V24.4062H120.156V23.5625H112.609V22.0156H122.156ZM136.078 14.2344V24.7188H134.031V19.6094H131.453V22.5H124.672V15.1562H126.688V17.3281H129.469V15.1562H131.453V18H134.031V14.2344H136.078ZM136.375 26.5625V28.1875H126.578V23.6875H128.609V26.5625H136.375ZM126.688 20.8906H129.469V18.875H126.688V20.8906ZM150.281 16V17.5938H138.453V16H143.359V14.3594H145.375V16H150.281ZM150.891 25.375V27H137.906V25.375H143.359V23.7188C140.953 23.5234 139.5 22.5391 139.5 21C139.5 19.2422 141.367 18.2188 144.359 18.2188C147.352 18.2188 149.211 19.2422 149.203 21C149.211 22.5391 147.766 23.5156 145.375 23.7188V25.375H150.891ZM144.359 19.7812C142.539 19.7812 141.562 20.1797 141.562 21C141.562 21.8125 142.547 22.1953 144.359 22.2031C146.156 22.1953 147.148 21.8125 147.156 21C147.148 20.1797 146.164 19.7812 144.359 19.7812ZM168.016 14.2188V28.4219H166.094V21.3125H164.906V27.7969H163.016V14.4375H164.906V19.6719H166.094V14.2188H168.016ZM160.125 17.7031C160.125 20.1562 160.859 22.5469 163.016 23.6719L161.859 25.2031C160.57 24.5078 159.719 23.3438 159.219 21.8906C158.734 23.5625 157.898 24.9141 156.547 25.7188L155.328 24.1719C157.469 22.9453 158.18 20.4375 158.172 17.7031V17.2812H155.781V15.6562H162.312V17.2812H160.125V17.7031ZM181.438 14.2188V21.4375H179.391V17.9219H176.766V16.3125H179.391V14.2188H181.438ZM181.438 22.0312V25.8594H173.969V26.7031H181.844V28.2812H171.984V24.3906H179.422V23.5938H171.953V22.0312H181.438ZM174.75 15.7031C174.758 17.3828 175.742 19.0312 178 19.7188L176.969 21.2656C175.438 20.7812 174.383 19.8203 173.766 18.5938C173.141 19.9609 172.016 21.0234 170.359 21.5469L169.328 19.9688C171.695 19.2422 172.727 17.5078 172.719 15.7031V14.6719H174.75V15.7031ZM195.266 14.2188V22.6562H193.219V19.2969H191.016V17.6562H193.219V14.2188H195.266ZM190.406 22.9844C193.422 22.9766 195.305 24 195.312 25.7188C195.305 27.4453 193.422 28.4531 190.406 28.4531C187.367 28.4531 185.492 27.4453 185.484 25.7188C185.492 24 187.367 22.9766 190.406 22.9844ZM190.406 24.5156C188.508 24.5078 187.508 24.9062 187.5 25.7188C187.508 26.5156 188.508 26.9219 190.406 26.9219C192.297 26.9219 193.297 26.5156 193.297 25.7188C193.297 24.9062 192.289 24.5078 190.406 24.5156ZM191.453 15.0781V16.6875H188.641C188.695 18.3047 189.703 19.9766 191.906 20.7188L190.906 22.2969C189.344 21.7812 188.273 20.7578 187.656 19.4844C187.031 20.9375 185.891 22.0938 184.219 22.6562L183.188 21.0625C185.477 20.2891 186.539 18.4688 186.594 16.6875H183.734V15.0781H191.453Z" fill="white"/>
</svg>
