<svg width="278" height="278" viewBox="0 0 278 278" fill="none" xmlns="http://www.w3.org/2000/svg">
<rect width="278" height="278" fill="#616193"/>
<mask id="mask0_98_8398" style="mask-type:alpha" maskUnits="userSpaceOnUse" x="33" y="33" width="212" height="212">
<rect x="33" y="33" width="212" height="212" fill="#D9D9D9"/>
</mask>
<g mask="url(#mask0_98_8398)">
<path d="M139 139C129.283 139 120.965 135.54 114.046 128.621C107.126 121.702 103.666 113.383 103.666 103.667C103.666 93.9502 107.126 85.6321 114.046 78.7127C120.965 71.7932 129.283 68.3335 139 68.3335C148.716 68.3335 157.034 71.7932 163.954 78.7127C170.873 85.6321 174.333 93.9502 174.333 103.667C174.333 113.383 170.873 121.702 163.954 128.621C157.034 135.54 148.716 139 139 139ZM68.333 192V184.934C68.333 179.928 69.6212 175.327 72.1976 171.131C74.774 166.936 78.1969 163.734 82.4663 161.525C91.5941 156.961 100.869 153.538 110.291 151.256C119.714 148.974 129.283 147.834 139 147.834C148.716 147.834 158.286 148.974 167.708 151.256C177.13 153.538 186.405 156.961 195.533 161.525C199.802 163.734 203.225 166.936 205.802 171.131C208.378 175.327 209.666 179.928 209.666 184.934V192C209.666 196.859 207.936 201.018 204.477 204.477C201.017 207.937 196.858 209.667 192 209.667H85.9997C81.1413 209.667 76.9823 207.937 73.5226 204.477C70.0629 201.018 68.333 196.859 68.333 192ZM85.9997 192H192V184.934C192 183.314 191.595 181.842 190.785 180.517C189.975 179.192 188.908 178.161 187.583 177.425C179.633 173.45 171.609 170.469 163.512 168.481C155.415 166.494 147.244 165.5 139 165.5C130.755 165.5 122.584 166.494 114.487 168.481C106.39 170.469 98.3663 173.45 90.4163 177.425C89.0913 178.161 88.024 179.192 87.2143 180.517C86.4045 181.842 85.9997 183.314 85.9997 184.934V192ZM139 121.333C143.858 121.333 148.017 119.604 151.477 116.144C154.936 112.684 156.666 108.525 156.666 103.667C156.666 98.8085 154.936 94.6495 151.477 91.1897C148.017 87.73 143.858 86.0002 139 86.0002C134.141 86.0002 129.982 87.73 126.523 91.1897C123.063 94.6495 121.333 98.8085 121.333 103.667C121.333 108.525 123.063 112.684 126.523 116.144C129.982 119.604 134.141 121.333 139 121.333Z" fill="white"/>
</g>
</svg>
