<svg width="90" height="44" viewBox="0 0 90 44" fill="none" xmlns="http://www.w3.org/2000/svg">
<path d="M77.864 -0.00012207H12.136C5.43347 -0.00012207 0 5.43335 0 12.1359V31.8639C0 38.5664 5.43347 43.9999 12.136 43.9999H77.864C84.5665 43.9999 90 38.5664 90 31.8639V12.1359C90 5.43335 84.5665 -0.00012207 77.864 -0.00012207Z" fill="#21213D"/>
<path d="M21.0234 16.5547V24.1484H20.0977V16.5547H21.0234ZM21.3516 25.9531V26.7148H14.2969V23.375H15.2109V25.9531H21.3516ZM15.3984 17.2695C16.9512 17.2754 18.1289 18.3359 18.1289 19.8242C18.1289 21.3301 16.9512 22.3965 15.3984 22.3906C13.8281 22.3965 12.6562 21.3301 12.6562 19.8242C12.6562 18.3359 13.8281 17.2754 15.3984 17.2695ZM15.3984 18.0664C14.3496 18.0723 13.5586 18.8047 13.5586 19.8242C13.5586 20.8555 14.3496 21.5762 15.3984 21.5703C16.4414 21.5762 17.2324 20.8555 17.2383 19.8242C17.2324 18.8047 16.4414 18.0723 15.3984 18.0664ZM32.2852 21.5V22.25H22.793V21.5H32.2852ZM27.5273 23.1641C29.7656 23.1641 31.1191 23.8555 31.125 25.0508C31.1191 26.2461 29.7656 26.9258 27.5273 26.9258C25.2891 26.9258 23.9297 26.2461 23.9297 25.0508C23.9297 23.8555 25.2891 23.1641 27.5273 23.1641ZM27.5273 23.8906C25.8633 23.8965 24.8613 24.3242 24.8672 25.0508C24.8613 25.7715 25.8633 26.1934 27.5273 26.1875C29.1914 26.1934 30.1875 25.7715 30.1875 25.0508C30.1875 24.3242 29.1914 23.8965 27.5273 23.8906ZM31.4297 17.0703V17.8203H28.1367C28.166 19.0039 29.9121 19.918 31.7461 20.1172L31.418 20.8555C29.707 20.6445 28.1074 19.8828 27.5508 18.7109C26.9766 19.8828 25.3711 20.6445 23.6602 20.8555L23.332 20.1172C25.1602 19.918 26.9121 19.0039 26.9531 17.8203H23.6602V17.0703H31.4297ZM41.8008 16.5547V24.2539H40.8633V20.2461H38.4141V22.4727H33.6797V17.2344H34.6055V19.0859H37.5V17.2344H38.4141V19.4844H40.8633V16.5547H41.8008ZM42.0469 25.9531V26.7148H35.0508V23.5039H35.9766V25.9531H42.0469ZM34.6055 21.7109H37.5V19.8125H34.6055V21.7109ZM52.5352 18.0781V18.8281H44.0039V18.0781H47.8242V16.707H48.7383V18.0781H52.5352ZM53.0625 24.957V25.7188H43.5352V24.957H47.8242V23.4922C45.9727 23.3926 44.8418 22.6836 44.8477 21.5234C44.8418 20.2754 46.1543 19.5488 48.2695 19.543C50.3906 19.5488 51.6973 20.2754 51.7031 21.5234C51.6973 22.6777 50.584 23.3926 48.7383 23.4922V24.957H53.0625ZM48.2695 20.2695C46.7227 20.2754 45.7734 20.7441 45.7734 21.5234C45.7734 22.3027 46.7285 22.7656 48.2695 22.7656C49.8105 22.7656 50.7715 22.3027 50.7773 21.5234C50.7715 20.7441 49.8105 20.2754 48.2695 20.2695ZM65.543 16.5547V24.1719H64.6055V20.1758H62.4727V19.4258H64.6055V16.5547H65.543ZM65.8242 25.9531V26.7148H58.8398V23.5039H59.7656V25.9531H65.8242ZM60.5273 18.6758C60.5215 20.0352 61.5703 21.3418 63.0938 21.875L62.6133 22.5898C61.4355 22.1738 60.5273 21.3008 60.082 20.2109C59.6309 21.418 58.6582 22.3789 57.4219 22.8359L56.9414 22.0977C58.4883 21.5586 59.6016 20.1758 59.6016 18.6875V18.1484H57.2461V17.3984H62.8477V18.1484H60.5273V18.6758ZM72.4688 20.1758V21.7109H76.7695V22.4609H67.2773V21.7109H71.5547V20.1758H72.4688ZM72.4805 17.1758C72.4805 18.5645 74.3438 19.7246 76.1836 19.9766L75.832 20.7148C74.2617 20.4453 72.6855 19.6309 72.0234 18.418C71.3555 19.6309 69.7734 20.4512 68.2031 20.7148L67.8516 19.9766C69.6855 19.7246 71.5488 18.5703 71.5547 17.1758V16.6953H72.4805V17.1758ZM72.0117 23.3281C74.2559 23.334 75.6035 23.9844 75.6094 25.1328C75.6035 26.2871 74.2617 26.9258 72.0117 26.9258C69.7559 26.9258 68.4141 26.2871 68.4141 25.1328C68.4141 23.9844 69.7617 23.334 72.0117 23.3281ZM72.0117 24.0547C70.3418 24.0547 69.3457 24.4414 69.3516 25.1328C69.3457 25.8184 70.3359 26.2109 72.0117 26.2109C73.6934 26.2109 74.6719 25.8184 74.6719 25.1328C74.6719 24.4414 73.6816 24.0547 72.0117 24.0547Z" fill="white"/>
</svg>
